<svg xmlns="http://www.w3.org/2000/svg" xmlns:xlink="http://www.w3.org/1999/xlink" id="Capa_1" x="0px" y="0px" viewBox="0 0 894.1 313.9" xml:space="preserve"><g>	<path fill="#00A6E3" d="M269.7,232.9c-13.5,17.3-30.4,30.2-50.9,38c-27.5,10.5-55.4,10.5-83.2,1.4c-25.1-8.3-45.6-23.2-60.6-45.1  c-13.4-19.5-20.4-41.2-21.6-64.8c-1.2-25,4.2-48.5,17.9-69.6c21.2-32.5,51.3-51.5,89.8-56.5c28.5-3.7,55,2.9,79.2,18.3  c12.1,7.7,22.3,17.4,31,28.8c0.7,0.9,2.3,2.1,3.2,1.8c4.2-1.1,8.3-2.6,12.5-4c-22.6-35.9-78.6-71.7-143.5-56.5  C79.6,39.8,38.9,97,38.7,158c-0.2,63.5,46.8,120.6,110,132.8c60.1,11.7,115.2-20.6,138.3-57.4c-3.3-1-6.7-1.7-9.8-3  C273.8,229.2,271.9,230,269.7,232.9z"></path>	<path fill="#00A6E3" d="M269.7,232.9c-13.5,17.3-30.4,30.2-50.9,38c-27.5,10.5-55.4,10.5-83.2,1.4c-25.1-8.3-45.6-23.2-60.6-45.1  c-13.4-19.5-20.4-41.2-21.6-64.8c-1.2-25,4.2-48.5,17.9-69.6c21.2-32.5,51.3-51.5,89.8-56.5c28.5-3.7,55,2.9,79.2,18.3  c12.1,7.7,22.3,17.4,31,28.8c0.7,0.9,2.3,2.1,3.2,1.8c4.2-1.1,8.3-2.6,12.5-4c-22.6-35.9-78.6-71.7-143.5-56.5  C79.6,39.8,38.9,97,38.7,158c-0.2,63.5,46.8,120.6,110,132.8c60.1,11.7,115.2-20.6,138.3-57.4c-3.3-1-6.7-1.7-9.8-3  C273.8,229.2,271.9,230,269.7,232.9z"></path>	<path fill="#00A6E3" d="M252.8,181.2c-8,5.9-15.1,13-22.8,19.3c-6.7,5.5-13.2,11.3-20.4,16.2c-11.6,7.8-24.8,10.7-38.6,10.1  c-13.9-0.6-26.5-5.6-37.9-13.8c-24.6-17.7-33.3-47.7-25.6-75.1c4.8-17.2,15.2-30.2,30.1-39.5c13.3-8.3,27.8-12.1,43.6-10.6  c13.4,1.3,25.3,6.1,36.1,14.2c0.8,0.6,2.2,1.2,3.1,1c4.5-1.3,8.9-2.8,13.7-4.4c-0.6-0.8-1-1.3-1.4-1.7  C214.6,80.5,193.6,72,169,73.7c-37.5,2.5-69,29.9-76.4,66.8c-4,19.5-1.6,38.3,7.8,55.9c10.6,19.9,26.9,33.5,48.2,40.7  c16.4,5.6,33.1,5.8,49.7,0.5c11.9-3.8,22.6-9.9,32-18.1c7.7-6.8,15.4-13.7,22.9-20.8c11.2-10.5,23.9-13.8,38.5-8.3  c4.4,1.6,9,2.7,13.8,4.1c1.1-4.6,2.1-9,3.2-13.8c-6.8-1.9-13-3.8-19.3-5.5C276.3,171.8,263.8,173.2,252.8,181.2z"></path>	<path fill="#00A6E3" d="M252.8,181.2c-8,5.9-15.1,13-22.8,19.3c-6.7,5.5-13.2,11.3-20.4,16.2c-11.6,7.8-24.8,10.7-38.6,10.1  c-13.9-0.6-26.5-5.6-37.9-13.8c-24.6-17.7-33.3-47.7-25.6-75.1c4.8-17.2,15.2-30.2,30.1-39.5c13.3-8.3,27.8-12.1,43.6-10.6  c13.4,1.3,25.3,6.1,36.1,14.2c0.8,0.6,2.2,1.2,3.1,1c4.5-1.3,8.9-2.8,13.7-4.4c-0.6-0.8-1-1.3-1.4-1.7  C214.6,80.5,193.6,72,169,73.7c-37.5,2.5-69,29.9-76.4,66.8c-4,19.5-1.6,38.3,7.8,55.9c10.6,19.9,26.9,33.5,48.2,40.7  c16.4,5.6,33.1,5.8,49.7,0.5c11.9-3.8,22.6-9.9,32-18.1c7.7-6.8,15.4-13.7,22.9-20.8c11.2-10.5,23.9-13.8,38.5-8.3  c4.4,1.6,9,2.7,13.8,4.1c1.1-4.6,2.1-9,3.2-13.8c-6.8-1.9-13-3.8-19.3-5.5C276.3,171.8,263.8,173.2,252.8,181.2z"></path>	<path fill="#00A6E3" d="M304.8,126c-5.9-1.7-11.8-3.2-17.7-4.6c-18.1-4.5-34.8-1.2-50.4,8.9c-11.7,7.6-21.4,17.4-31.9,26.5  c-5.8,5.1-11.8,10-18.2,14.2c-9.4,6.2-20.1,5.7-27.7-5.4c-0.4-0.6-1.6-1.1-2.3-0.9c-3.9,1.1-7.7,2.5-12.1,3.9  c1.6,2.7,2.8,5.2,4.4,7.4c10.9,14.1,29.9,17.3,45.4,6.8c9-6.1,17.2-13.5,25.6-20.5c7.1-5.9,13.7-12.4,21.2-17.8  c13.4-9.8,28.2-13.5,44.7-9c7.7,2.1,15.6,3.8,24,5.9c-0.8-4.4-1.3-8.5-2.3-12.5C307.2,127.8,305.9,126.4,304.8,126z"></path>	<path fill="#00A6E3" d="M304.8,126c-5.9-1.7-11.8-3.2-17.7-4.6c-18.1-4.5-34.8-1.2-50.4,8.9c-11.7,7.6-21.4,17.4-31.9,26.5  c-5.8,5.1-11.8,10-18.2,14.2c-9.4,6.2-20.1,5.7-27.7-5.4c-0.4-0.6-1.6-1.1-2.3-0.9c-3.9,1.1-7.7,2.5-12.1,3.9  c1.6,2.7,2.8,5.2,4.4,7.4c10.9,14.1,29.9,17.3,45.4,6.8c9-6.1,17.2-13.5,25.6-20.5c7.1-5.9,13.7-12.4,21.2-17.8  c13.4-9.8,28.2-13.5,44.7-9c7.7,2.1,15.6,3.8,24,5.9c-0.8-4.4-1.3-8.5-2.3-12.5C307.2,127.8,305.9,126.4,304.8,126z"></path></g><g>	<path fill="#313133" d="M393.6,155.8c-9.3,0-17.4-2.2-24.4-6.5c-7-4.3-12.5-10.2-16.5-17.7c-4-7.4-6-15.8-6-25.2  c0-9.4,2-17.7,6-25.1c4-7.4,9.5-13.2,16.5-17.5c7-4.3,15.2-6.4,24.4-6.4c5.9,0,11.4,1.1,16.5,3.2c5.2,2.1,9.7,4.9,13.7,8.5  c4,3.6,7,7.7,9,12.4l-11.9,6.1c-2.3-5-5.9-9.1-10.7-12.3c-4.8-3.2-10.3-4.7-16.5-4.7c-6.2,0-11.8,1.6-16.8,4.7  c-5,3.1-8.9,7.4-11.8,12.8c-2.9,5.4-4.3,11.6-4.3,18.5c0,6.8,1.4,12.9,4.3,18.4c2.9,5.4,6.8,9.8,11.8,12.9c5,3.2,10.6,4.7,16.8,4.7  c6.2,0,11.7-1.6,16.4-4.7c4.7-3.2,8.3-7.4,10.8-12.6l11.9,6.5c-2,4.6-5,8.7-9,12.3c-4,3.6-8.6,6.5-13.7,8.6  C405,154.8,399.5,155.8,393.6,155.8z"></path>	<path fill="#313133" d="M455.8,153.7v-133H469v133H455.8z"></path>	<path fill="#313133" d="M495.9,42.1V22.8H509v19.3H495.9z M495.9,153.7V59.5H509v94.2H495.9z"></path>	<path fill="#313133" d="M535.9,153.7V59.5h13.2v17.9l-2.1-2.6c2.6-5.5,6.4-9.8,11.5-12.8c5.1-3,10.7-4.6,16.8-4.6  c7.3,0,13.8,2.1,19.7,6.1c5.9,4.1,10,9.4,12.5,16l-3.7,0.2c2.3-7.3,6.4-12.8,12.2-16.6c5.8-3.8,12.2-5.7,19.2-5.7  c6.3,0,12.1,1.5,17.5,4.6c5.3,3,9.6,7.2,12.8,12.6c3.2,5.3,4.8,11.3,4.8,18v61.1h-13.2v-56c0-5.7-1-10.6-3.1-14.6  c-2.1-4-4.8-7.1-8.3-9.2c-3.5-2.2-7.6-3.3-12.1-3.3c-4.5,0-8.5,1.1-12.1,3.3c-3.6,2.2-6.5,5.3-8.6,9.3s-3.2,8.9-3.2,14.5v56h-13.2  v-56c0-5.7-1-10.6-3.1-14.6c-2.1-4-4.8-7.1-8.3-9.2c-3.5-2.2-7.6-3.3-12.1-3.3c-4.6,0-8.6,1.1-12.2,3.3c-3.6,2.2-6.4,5.3-8.5,9.3  c-2.1,4-3.2,8.9-3.2,14.5v56H535.9z"></path>	<path fill="#313133" d="M722.5,155.8c-6,0-11.3-1.1-16-3.4c-4.7-2.3-8.4-5.4-11.1-9.4c-2.7-4-4-8.5-4-13.7c0-4.9,1.1-9.4,3.2-13.4  c2.1-4,5.4-7.5,9.8-10.3c4.4-2.8,10.1-4.8,17-6l36.9-6.1v11.9l-33.7,5.6c-6.8,1.2-11.7,3.3-14.7,6.5c-3,3.2-4.5,6.9-4.5,11.2  c0,4.2,1.7,7.8,5,10.7c3.3,2.9,7.6,4.4,12.9,4.4c6.4,0,12.1-1.4,16.9-4.1c4.8-2.8,8.5-6.5,11.2-11.2c2.7-4.7,4-9.9,4-15.6V89.1  c0-5.6-2.1-10.2-6.1-13.7c-4.1-3.5-9.4-5.3-16-5.3c-5.7,0-10.8,1.4-15.1,4.3c-4.3,2.9-7.6,6.6-9.7,11.2L696.7,79  c1.8-4,4.5-7.6,8.3-10.9c3.8-3.3,8.2-5.9,13.1-7.8c4.9-1.9,10-2.9,15.3-2.9c6.9,0,13,1.3,18.4,4c5.3,2.7,9.5,6.4,12.5,11.2  c3,4.7,4.5,10.2,4.5,16.4v64.7h-13.2v-18.8l1.9,1.9c-1.6,3.5-4.2,6.7-7.6,9.6c-3.5,2.9-7.5,5.2-12.1,6.9  C733.1,155,728,155.8,722.5,155.8z"></path>	<path fill="#313133" d="M393.6,292.9c-9.3,0-17.4-2.2-24.4-6.5c-7-4.3-12.5-10.2-16.5-17.7c-4-7.4-6-15.8-6-25.2  c0-9.4,2-17.7,6-25.1c4-7.4,9.5-13.2,16.5-17.5c7-4.3,15.2-6.4,24.4-6.4c5.9,0,11.4,1.1,16.5,3.2c5.2,2.1,9.7,4.9,13.7,8.5  c4,3.6,7,7.7,9,12.4l-11.9,6.1c-2.3-5-5.9-9.1-10.7-12.3c-4.8-3.2-10.3-4.7-16.5-4.7c-6.2,0-11.8,1.6-16.8,4.7  c-5,3.1-8.9,7.4-11.8,12.8c-2.9,5.4-4.3,11.6-4.3,18.5c0,6.8,1.4,12.9,4.3,18.4c2.9,5.4,6.8,9.8,11.8,12.9c5,3.2,10.6,4.7,16.8,4.7  c6.2,0,11.7-1.6,16.4-4.7c4.7-3.2,8.3-7.4,10.8-12.6l11.9,6.5c-2,4.6-5,8.7-9,12.3c-4,3.6-8.6,6.5-13.7,8.6  C405,291.9,399.5,292.9,393.6,292.9z"></path>	<path fill="#313133" d="M481.3,292.9c-6,0-11.3-1.1-16-3.4c-4.7-2.3-8.4-5.4-11.1-9.4c-2.7-4-4-8.5-4-13.7c0-4.9,1.1-9.4,3.2-13.4  c2.1-4,5.4-7.5,9.8-10.3c4.4-2.8,10.1-4.8,17-6l36.9-6.1v11.9l-33.7,5.6c-6.8,1.2-11.7,3.3-14.7,6.5c-3,3.2-4.5,6.9-4.5,11.2  c0,4.2,1.7,7.8,5,10.7c3.3,2.9,7.6,4.4,12.9,4.4c6.4,0,12.1-1.4,16.9-4.1c4.8-2.8,8.5-6.5,11.2-11.2c2.7-4.7,4-9.9,4-15.6v-23.9  c0-5.6-2.1-10.2-6.1-13.7c-4.1-3.5-9.4-5.3-16-5.3c-5.7,0-10.8,1.4-15.1,4.3c-4.3,2.9-7.6,6.6-9.7,11.2l-11.9-6.5  c1.8-4,4.5-7.6,8.3-10.9c3.8-3.3,8.2-5.9,13.1-7.8c4.9-1.9,10-2.9,15.3-2.9c6.9,0,13,1.3,18.4,4c5.3,2.7,9.5,6.4,12.5,11.2  c3,4.7,4.5,10.2,4.5,16.4v64.7h-13.2V272l1.9,1.9c-1.6,3.5-4.2,6.7-7.6,9.6c-3.5,2.9-7.5,5.2-12.1,6.9  C491.9,292.1,486.8,292.9,481.3,292.9z"></path>	<path fill="#313133" d="M554.4,290.8v-94.2h13.2v15.5l-1.8-2.3c2.2-4.4,5.6-8,10.1-10.5c4.5-2.6,10-3.9,16.4-3.9h6v13.2H590  c-6.8,0-12.2,2.1-16.3,6.3c-4.1,4.2-6.1,10.2-6.1,17.9v58H554.4z"></path>	<path fill="#313133" d="M613.6,179.3v-19.3h13.2v19.3H613.6z M613.6,290.8v-94.2h13.2v94.2H613.6z"></path>	<path fill="#313133" d="M701.2,292.9c-8.1,0-15.4-1.8-21.9-5.5c-6.5-3.7-11.4-8.9-14.7-15.7l2.1-1.9v21.1h-13.2v-133h13.2v59.9  l-2.1-3.7c3.7-6,8.8-10.7,15-14.2c6.3-3.5,13.4-5.3,21.5-5.3c8.9,0,16.8,2.1,23.8,6.4c7,4.3,12.5,10.1,16.5,17.5  c4,7.4,6.1,15.8,6.1,25.3c0,9.4-2,17.8-6.1,25.2c-4,7.4-9.5,13.3-16.5,17.6C718.1,290.8,710.1,292.9,701.2,292.9z M700.5,279.7  c6.3,0,12-1.6,17-4.7c5-3.2,8.9-7.5,11.8-12.9c2.9-5.4,4.3-11.6,4.3-18.4c0-6.9-1.4-13.1-4.3-18.4c-2.9-5.4-6.8-9.7-11.8-12.8  c-5-3.2-10.6-4.7-17-4.7s-12,1.6-17.1,4.7c-5.1,3.2-9.1,7.5-12.1,12.9c-3,5.4-4.5,11.6-4.5,18.4c0,6.8,1.5,12.9,4.5,18.4  c3,5.4,7,9.8,12.1,12.9C688.5,278.2,694.2,279.7,700.5,279.7z"></path>	<path fill="#313133" d="M813.5,292.9c-8.8,0-16.7-2.1-23.8-6.4c-7.1-4.3-12.7-10.2-16.8-17.7c-4.1-7.5-6.1-16-6.1-25.5  s2-17.9,6-25.2c4-7.3,9.4-13.1,16.3-17.3c6.9-4.2,14.6-6.3,23.1-6.3c6.8,0,12.9,1.3,18.2,3.8c5.3,2.5,9.9,5.9,13.6,10.2  c3.7,4.3,6.6,9.1,8.6,14.4c2,5.3,3,10.8,3,16.4c0,1.2-0.1,2.5-0.2,4c-0.1,1.5-0.3,3-0.5,4.5h-79.6v-12.3h72l-6.3,5.3  c1.1-6.4,0.3-12.2-2.2-17.3c-2.5-5.1-6.1-9.1-10.8-12.1c-4.7-3-10-4.5-15.8-4.5c-5.9,0-11.3,1.5-16.3,4.6c-5,3-8.9,7.3-11.7,12.7  s-3.9,11.9-3.3,19.4c-0.6,7.5,0.6,14,3.6,19.6c3,5.6,7.1,9.9,12.3,12.9c5.2,3,10.8,4.6,16.8,4.6c6.9,0,12.7-1.6,17.4-4.9  c4.7-3.3,8.5-7.4,11.4-12.3l11.2,6c-1.9,4.2-4.7,8.1-8.6,11.7c-3.9,3.6-8.5,6.4-13.8,8.6C825.8,291.8,819.9,292.9,813.5,292.9z"></path></g></svg>